# xmcd
#
# Track frame offsets: 
#        225
#        17232
#        42117
#        72447
#        94111
#        114472
#        136684
#        157619
#        178399
#        197203
#        218681
#        238294
#        254174
#        276310
#
# Disc length: 3987 seconds
#
# Revision: 0
# Processed by: cddbd v1.5PL3 Copyright (c) Steve Scherf et al.
# Submitted via: ExactAudioCopy v0.95a4
#
DISCID=d00f900e
DTITLE=Eddie Martin Band - Fires and Floods
DYEAR=1998
DGENRE=Blues
TTITLE0=Fires And Floods
TTITLE1=Blues With A Feeling
TTITLE2=Answerphone Blues3
TTITLE3=Prickly As A Porcupine
TTITLE4=Rebpund Blues
TTITLE5=Real Woman
TTITLE6=You Can´t Hold Mercury
TTITLE7=Hideaway
TTITLE8=I Wanna Be Your Man
TTITLE9=I Want To Live With You
TTITLE10=See Red Blues
TTITLE11=Dukes Boogie
TTITLE12=Breaking Even
TTITLE13=Put Down Blues
EXTD=
EXTT0=
EXTT1=
EXTT2=
EXTT3=
EXTT4=
EXTT5=
EXTT6=
EXTT7=
EXTT8=
EXTT9=
EXTT10=
EXTT11=
EXTT12=
EXTT13=
PLAYORDER=
